# xmcd
#
# Track frame offsets:
#	150
#	11792
#	24609
#	40401
#	50559
#	64960
#	74440
#	87085
#	96994
#	107309
#	123508
#	133536
#	147395
#	161686
#	173738
#	202889
#
# Disc length: 2711 seconds
#
# Revision: 2
# Processed by: cddbd v1.5.2PL0 Copyright (c) Steve Scherf et al.
# Submitted via: audiograbber 1.83.01
#
DISCID=e20a9510
DTITLE=Various Artist - ASK48-2
DYEAR=1900
DGENRE=Karaoke
TTITLE0=Johnny Cash - Ring Of Fire
TTITLE1=Johnny Paycheck - Take This Job And Shove It
TTITLE2=Kris Kristofferson - Why Me Lord
TTITLE3=Lefty Frizzel - If You've Got The Money I've Got The Time
TTITLE4=Lorreta Lynn - Coal Miner's Daughter
TTITLE5=Lorretta Lynn - Don't Come Home A Drinkin'
TTITLE6=Merle Haggard - Okie From Muskogee
TTITLE7=Patsy Cline - Walkin' After Midnight
TTITLE8=Patsy Cline - Blue Moon Of Kentucky
TTITLE9=Pee Wee King - Tennessee Waltz
TTITLE10=Tammy Wynette - Your Good Girl's Gonna Go Bad
TTITLE11=Tanya Tucker - Texas When I Die
TTITLE12=Tom Jones - Green, Green Grass Of Home
TTITLE13=Waylon Jennings-Willie Nelson - Mama's Don't Let Your Babies Grow Up T
TTITLE13=o Be Cowboys
TTITLE14=Willie Nelson - Always On My Mind
TTITLE15=data - Data Track
EXTD=
EXTT0=
EXTT1=
EXTT2=
EXTT3=
EXTT4=
EXTT5=
EXTT6=
EXTT7=
EXTT8=
EXTT9=
EXTT10=
EXTT11=
EXTT12=
EXTT13=
EXTT14=
EXTT15=
PLAYORDER=
